<svg xmlns="http://www.w3.org/2000/svg" version="1.1" xmlns:xlink="http://www.w3.org/1999/xlink" xmlns:svgjs="http://svgjs.dev/svgjs" width="2000" height="1500" viewBox="0 0 2000 1500"><rect width="2000" height="1500" fill="#0023ff"></rect><g transform="matrix(0.75,0,0,0.75,249.090909090909,314.1653743149184)"><svg viewBox="0 0 396 247" data-background-color="#0023ff" preserveAspectRatio="xMidYMid meet" height="1247" width="2000" xmlns="http://www.w3.org/2000/svg" xmlns:xlink="http://www.w3.org/1999/xlink"><g id="tight-bounds" transform="matrix(1,0,0,1,0.2400000000000091,-0.09999999999999432)"><svg viewBox="0 0 395.52 247.2" height="247.2" width="395.52"><g><svg></svg></g><g><svg viewBox="0 0 395.52 247.2" height="247.2" width="395.52"><g transform="matrix(1,0,0,1,75.54432,55.35079591322602)"><svg viewBox="0 0 244.43135999999998 136.49840817354794" height="136.49840817354794" width="244.43135999999998"><g><svg viewBox="0 0 244.43135999999998 136.49840817354794" height="136.49840817354794" width="244.43135999999998"><g><svg viewBox="0 0 244.43135999999998 136.49840817354794" height="136.49840817354794" width="244.43135999999998"><g id="textblocktransform"><svg viewBox="0 0 244.43135999999998 136.49840817354794" height="136.49840817354794" width="244.43135999999998" id="textblock"><g><svg viewBox="0 0 244.43135999999998 136.49840817354794" height="136.49840817354794" width="244.43135999999998"><g transform="matrix(1,0,0,1,0,0)"><svg width="244.43135999999998" viewBox="1.4 -34.35 71.44999999999999 39.9" height="136.49840817354794" data-palette-color="#f8fafc"><path d="M34-26.5L34-26.5Q34-24.85 31.9-24.1L31.9-24.1Q30.4-23.5 28.4-23.5 26.4-23.5 24.2-24.05L24.2-24.05Q21.9-24.5 20.35-25.6L20.35-25.6Q20.25-25.7 20.25-25.8 20.25-25.9 20.38-25.9 20.5-25.9 20.55-25.85L20.55-25.85Q23.3-24.05 28.3-24.05L28.3-24.05Q30-24.05 31.4-24.68 32.8-25.3 32.8-26.55L32.8-26.55Q32.8-28.35 30.2-29.25L30.2-29.25Q28.4-29.9 26.15-29.9L26.15-29.9Q19.9-29.9 17.6-25.85L17.6-25.85Q16.9-24.6 16.9-23.25L16.9-23.25Q16.9-20.2 20.3-17.9L20.3-17.9Q22.55-16.4 26.55-13.9L26.55-13.9Q29.9-11.15 29.9-7.05L29.9-7.05Q29.9-1.5 24.2 1.85L24.2 1.85Q19.45 4.65 14.03 4.65 8.6 4.65 5.4 2.75L5.4 2.75Q1.4 0.45 1.4-3.93 1.4-8.3 4.63-11.08 7.85-13.85 12.1-13.85L12.1-13.85Q14.45-13.85 14.45-13.45L14.45-13.45Q14.45-13.35 13.65-13.35 12.85-13.35 12.8-13.35L12.8-13.35Q8.75-13.35 5.8-10.95L5.8-10.95Q2.65-8.5 2.65-4.38 2.65-0.25 5.5 2.02 8.35 4.3 12.2 4.3 16.05 4.3 20.4 2.5L20.4 2.5Q27.9-0.5 27.9-6.85L27.9-6.85Q27.9-10.75 24.45-13.15L24.45-13.15Q23.35-13.95 21.2-15.3 19.05-16.65 18.15-17.25L18.15-17.25Q14.75-19.55 14.75-22.85L14.75-22.85Q14.75-25.05 16.4-26.85L16.4-26.85Q14.9-26.7 13.85-25.4L13.85-25.4Q12.85-24 12.85-22.5L12.85-22.5Q12.85-19.05 16.1-16.6L16.1-16.6Q17.15-15.8 22.1-12.45L22.1-12.45Q25.3-9.8 25.3-6.25 25.3-2.7 21.8 0.33 18.3 3.35 14.65 3.35L14.65 3.35Q14.4 3.35 14.4 3.2L14.4 3.2Q14.4 2.9 14.75 2.9L14.75 2.9Q16.3 2.7 17.4 2.35L17.4 2.35Q20.1 1.25 22.25-1.15 24.4-3.55 24.4-6.2L24.4-6.2Q24.4-9.9 21.25-12.25L21.25-12.25Q20.3-13 18.32-14.33 16.35-15.65 15.4-16.35L15.4-16.35Q12.2-18.7 12.2-22.45L12.2-22.45Q12.2-24.3 13.5-25.73 14.8-27.15 16.6-27.15L16.6-27.15 16.7-27.15Q20.25-30.55 25.85-30.55 31.45-30.55 33.4-28.1L33.4-28.1Q34-27.35 34-26.5ZM53.95-31.25L53.95-31.25 53.85-34Q53.85-34.35 54.05-34.35L54.05-34.35Q54.1-34.35 54.2-34.1L54.2-34.1Q54.5-32.35 54.5-30.8 54.5-29.25 54.5-28.6L54.5-28.6Q56.1-28.7 56.5-28.7L56.5-28.7Q59.1-28.7 62.8-27.9L62.8-27.9Q65.6-30.55 68.7-30.55L68.7-30.55Q70.4-30.55 71.62-29.33 72.85-28.1 72.85-26.3L72.85-26.3Q72.85-25.65 72.6-25.65L72.6-25.65Q72.5-25.65 72.25-27L72.25-27Q71.95-29.1 69.2-29.1L69.2-29.1Q67.2-29.1 65.05-27.3L65.05-27.3Q67.95-26.4 70.1-24.75L70.1-24.75Q72.7-22.65 72.7-20.05L72.7-20.05Q72.7-16.85 69-14.95L69-14.95Q66.2-13.5 62.55-13.3L62.55-13.3Q72.35-8.75 72.35-2.5L72.35-2.5Q72.35 0.45 69.9 2.43 67.45 4.4 64.45 4.4L64.45 4.4Q59.8 4.4 56.35 3.3L56.35 3.3 48.85 0.2Q46.2 3.4 43.8 4.4L43.8 4.4Q41.45 5.55 37.2 5.55L37.2 5.55Q35.35 5.55 33.65 4.3L33.65 4.3Q31.75 3 31.75 1 31.75-1 33.8-2.05 35.85-3.1 38.5-3.1 41.15-3.1 44.6-2.05L44.6-2.05Q48.4-6.4 51.05-14.2L51.05-14.2Q53.25-20.95 53.8-27.8L53.8-27.8Q44.8-27.15 39.95-22.15L39.95-22.15Q38.05-20.1 38.05-17.8L38.05-17.8Q38.05-14 42.25-12.25L42.25-12.25Q42.8-11.95 43.65-11.78 44.5-11.6 44.5-11.45L44.5-11.45Q44.5-11.2 44.2-11.2L44.2-11.2 44.05-11.25Q41.15-11.45 38.45-13.75 35.75-16.05 35.75-18.9L35.75-18.9Q35.75-21.05 37.5-22.8L37.5-22.8Q42.7-28.15 53.85-28.6L53.85-28.6Q53.95-30.4 53.95-31.25ZM70.5-0.95L70.5-0.95Q70.5-6.85 62.55-10.65L62.55-10.65 59.7-11.85Q59.6-11.95 59.6-12.35L59.6-12.35Q59.6-13.65 60.95-13.95L60.95-13.95 61.9-13.95Q62.55-13.95 63.55-14.15L63.55-14.15Q66.35-14.7 68.15-16.05L68.15-16.05Q70.3-17.8 70.3-20.2 70.3-22.6 68.62-24.25 66.95-25.9 64.45-26.75L64.45-26.75Q61.45-24.05 58.95-18.8L58.95-18.8Q57.45-15.6 54.7-9.47 51.95-3.35 49.4-0.45L49.4-0.45Q53.95 1.25 57.25 2.33 60.55 3.4 64.1 3.4L64.1 3.4Q70.5 3.4 70.5-0.95ZM62.25-27.3L62.25-27.3Q59.25-27.9 57.12-27.9 55-27.9 54.45-27.85L54.45-27.85Q54.05-20.9 51.9-14.1L51.9-14.1Q49.3-6.2 45.5-1.75L45.5-1.75 47.4-1.1Q49.35-3.2 51.6-8.03 53.85-12.85 56.45-18.35L56.45-18.35Q59.35-24.25 62.25-27.3ZM37.75 2.6L37.75 2.6Q36.8 2.6 36.8 2.25L36.8 2.25Q36.8 2 37.65 2L37.65 2Q40.95 2 44.25-1.55L44.25-1.55Q41.1-2.65 38.65-2.65 36.2-2.65 34.4-1.88 32.6-1.1 32.6 0.65 32.6 2.4 34.25 3.45L34.25 3.45Q35.7 4.45 37.87 4.45 40.05 4.45 42.87 2.98 45.7 1.5 47-0.45L47-0.45 45.1-1.3Q41.65 2.6 37.75 2.6Z" opacity="1" transform="matrix(1,0,0,1,0,0)" fill="#f8fafc" class="wordmark-text-0" data-fill-palette-color="primary" id="text-0"></path></svg></g></svg></g></svg></g></svg></g><g></g></svg></g></svg></g><g><path d="M128.177 23.127A122.216 122.216 0 0 1 267.343 23.127L255.034 23.127A109.906 109.906 0 0 0 140.486 23.127L128.177 23.127M128.177 224.073A122.216 122.216 0 0 0 267.343 224.073L255.034 224.073A109.906 109.906 0 0 1 140.486 224.073L128.177 224.073" fill="#f8fafc" stroke="transparent" data-fill-palette-color="tertiary"></path></g></svg></g><defs></defs></svg><rect width="395.52" height="247.2" fill="none" stroke="none" visibility="hidden"></rect></g></svg></g></svg>